<svg id="Capa_1" enable-background="new 0 0 512.016 512.016" height="512" viewBox="0 0 512.016 512.016" width="512" xmlns="http://www.w3.org/2000/svg"><g><path d="m153.74 167.88 69.17 251.555 53.98-24.416-84.811-308.387z" fill="#BE92EE"/><path d="m95.74 290.79 45.527 165.574 53.97-24.412-61.156-222.413z" fill="#f4cd30"/><path d="m221.464 80.347 83.097 302.155 125.634-56.827c9.429-4.265 11.816-16.612 4.616-24.079z" fill="#5948F2"/><path d="m1.45 490.606c-4.7 9.959 2.601 21.402 13.569 21.402 2.088 0 4.193-.436 6.178-1.333l92.398-41.793-37.514-136.432z" fill="#5948f2"/><path d="m293.352 91.794-2.754 5.508c-3.705 7.41-.702 16.419 6.708 20.124 7.424 3.712 16.427.687 20.124-6.708l2.754-5.507c15.581-31.159 14.375-67.712-3.224-97.778-4.186-7.15-13.375-9.552-20.523-5.368-7.149 4.185-9.552 13.373-5.367 20.523 12.456 21.28 13.31 47.151 2.282 69.206z" fill="#5948f2"/><path d="m504.591 195.064c-30.066-17.599-66.617-18.807-97.778-3.225l-5.508 2.754c-7.41 3.705-10.413 12.715-6.708 20.124 2.628 5.257 7.925 8.295 13.428 8.295 4.333 0 6.643-1.56 12.204-4.341 22.056-11.028 47.927-10.174 69.206 2.283 7.149 4.183 16.338 1.783 20.523-5.368 4.185-7.149 1.783-16.337-5.367-20.522z" fill="#5948f2"/><path d="m497.013.01c-8.284 0-15 6.716-15 15v1c0 9.374-7.626 17-17 17-28.445 0-48 22.253-48 47 0 8.284 6.716 15 15 15s15-6.716 15-15c0-9.374 7.626-17 17-17 26.904 0 48-20.309 48-48 0-8.284-6.716-15-15-15z" fill="#5948f2"/><path d="m384.033 55.01c8.285 0 15-6.716 15-15s-6.715-15-15-15c-8.368 0-15.005 6.786-15.005 15 .001 8.284 6.721 15 15.005 15z" fill="#5948f2"/><path d="m368.033 159.009c8.285 0 15-6.716 15-15s-6.715-15-15-15c-8.368 0-15.005 6.786-15.005 15 .001 8.285 6.721 15 15.005 15z" fill="#BE92EE"/><path d="m487.033 128.009c0-8.217-6.645-15-15.01-15-8.284 0-14.995 6.716-14.995 15s6.721 15 15.005 15c8.285 0 15-6.715 15-15z" fill="#5948f2"/></g></svg>