<svg height="512pt" viewBox="-8 0 512 512.00056" width="512pt" xmlns="http://www.w3.org/2000/svg"><path d="m77.144531 381.09375c-12.992187-13.210938-33.414062-17.523438-51.136719-9.257812-10.894531 5.078124-19.15625 14.097656-23.269531 25.394531-4.109375 11.292969-3.578125 23.515625 1.5 34.410156 4.867188 10.4375 13.253907 18.128906 23.09375 22.335937-3.105469 10.238282-2.601562 21.605469 2.265625 32.042969 7.628906 16.355469 23.898438 25.980469 40.855469 25.980469 6.359375 0 12.816406-1.355469 18.949219-4.214844 10.894531-5.078125 19.15625-14.097656 23.269531-25.394531 2.335937-6.417969 3.171875-13.132813 2.527344-19.734375l97.339843-45.390625-106.480468-49.65625zm0 0"/><path d="m252.699219.0898438c-68.402344-2.5937498-124.667969 52.0859372-124.667969 119.9101562 0 35.503906 15.480469 67.324219 40 89.28125v45.722656c0 8.285156 6.714844 15 15 15h20v-30c0-8.285156 6.71875-15 15-15 8.285156 0 15 6.714844 15 15v30h30.003906v-30c0-8.285156 6.714844-15 15-15 8.28125 0 15 6.714844 15 15v30h20c8.285156 0 15-6.714844 15-15v-45.726562c24.710938-22.128906 40.242188-54.273438 39.996094-90.113282-.4375-63.855468-51.519531-116.65625-115.332031-119.0742182zm-60.667969 139.9140622c-16.542969 0-30-13.460937-30-30.003906 0-16.539062 13.457031-30 30-30s30 13.460938 30 30c0 16.542969-13.457031 30.003906-30 30.003906zm127.003906-11h-23.789062l19.394531 19.390625c5.859375 5.859375 5.859375 15.355469 0 21.214844-2.929687 2.929687-6.765625 4.394531-10.605469 4.394531s-7.679687-1.464844-10.605468-4.394531l-45-45c-4.292969-4.289063-5.574219-10.742187-3.253907-16.347656 2.320313-5.605469 7.792969-9.261719 13.859375-9.261719h23.785156l-19.394531-19.394531c-5.855469-5.855469-5.855469-15.355469 0-21.210938 5.859375-5.859375 15.355469-5.859375 21.214844 0l45 45c4.292969 4.289063 5.574219 10.742188 3.253906 16.347657-2.324219 5.605468-7.792969 9.261718-13.859375 9.261718zm0 0"/><path d="m493.328125 397.230469c-4.113281-11.296875-12.375-20.316407-23.269531-25.394531-17.726563-8.265626-38.144532-3.949219-51.136719 9.257812l-173.894531-81.089844h-61.996094c-24.8125 0-45-20.1875-45-45v-4.890625l-22.832031-10.648437c.644531-6.605469-.191407-13.320313-2.527344-19.738282-4.113281-11.296874-12.375-20.3125-23.269531-25.394531-22.488282-10.484375-49.316406-.722656-59.804688 21.769531-4.863281 10.429688-5.371094 21.789063-2.273437 32.023438-10.214844 4.351562-18.355469 12.214844-23.082031 22.355469-5.082032 10.894531-5.613282 23.113281-1.503907 34.410156s12.375 20.3125 23.269531 25.394531c17.726563 8.265625 38.144532 3.949219 51.136719-9.257812l303.726563 141.628906c-.648438 6.601562.1875 13.320312 2.523437 19.738281 4.113281 11.292969 12.375 20.3125 23.269531 25.390625 6.136719 2.863282 12.589844 4.214844 18.949219 4.214844 16.957031 0 33.230469-9.625 40.855469-25.980469 4.863281-10.429687 5.371094-21.789062 2.273438-32.023437 10.214843-4.355469 18.355468-12.214844 23.082031-22.355469 5.082031-10.894531 5.617187-23.113281 1.503906-34.410156zm0 0"/><path d="m315.8125 299.910156 74.195312 34.597656 28.898438-13.472656c4.640625 4.738282 10.324219 8.414063 16.742188 10.75 11.296874 4.113282 23.515624 3.578125 34.410156-1.5 22.488281-10.488281 32.253906-37.316406 21.765625-59.804687-4.863281-10.429688-13.238281-18.121094-23.066407-22.328125 3.226563-10.621094 2.4375-21.910156-2.289062-32.050782-10.488281-22.488281-37.3125-32.253906-59.804688-21.769531-10.894531 5.082031-19.15625 14.101563-23.269531 25.394531-2.335937 6.417969-3.171875 13.136719-2.527343 19.738282l-22.832032 10.648437v4.890625c0 23.878906-18.699218 43.464844-42.222656 44.90625zm0 0"/></svg>