<svg height="512pt" viewBox="-30 0 512 512.00046" width="512pt" xmlns="http://www.w3.org/2000/svg"><path d="m121.023438 96.640625 24.710937-25.328125c3.925781-4.023438 5.273437-9.90625 3.488281-15.238281s-6.398437-9.214844-11.957031-10.066407l-33.546875-5.125-15.140625-32.253906c-2.46875-5.265625-7.761719-8.628906-13.578125-8.628906s-11.109375 3.363281-13.578125 8.628906l-15.140625 32.253906-33.546875 5.125c-5.558594.851563-10.175781 4.734376-11.957031 10.066407-1.785156 5.332031-.4375 11.214843 3.488281 15.238281l24.710937 25.328125-5.863281 35.945313c-.921875 5.667968 1.46875 11.367187 6.167969 14.675781 4.691406 3.308593 10.867188 3.648437 15.894531.867187l29.824219-16.488281 29.824219 16.488281c2.265625 1.25 4.765625 1.871094 7.253906 1.871094 3.039063 0 6.0625-.917969 8.640625-2.738281 4.699219-3.308594 7.089844-9.007813 6.167969-14.675781zm0 0"/><path d="m142 246.25c0 18.640625 15.109375 33.75 33.75 33.75s33.75-15.109375 33.75-33.75c0 18.640625 15.109375 33.75 33.75 33.75 5.789062 0 11.238281-1.457031 16-4.027344-16.460938-11.539062-27.25-30.640625-27.25-52.222656 0-28.628906 18.96875-52.90625 45-60.929688v-19.070312c0-18.640625-15.109375-33.75-33.75-33.75s-33.75 15.109375-33.75 33.75v20c0-18.640625-15.109375-33.75-33.75-33.75s-33.75 15.109375-33.75 33.75zm0 0"/><path d="m397 190h-101.25c-18.640625 0-33.75 15.109375-33.75 33.75s15.109375 33.75 33.75 33.75h71.25l-15.011719 18.765625c-13.378906 16.722656-21.703125 36.800781-24.1875 57.890625l-.015625-.019531c-.894531 7.597656-7.25 13.363281-14.898437 13.363281-8.976563 0-15.953125-7.835938-14.898438-16.75 1.765625-14.96875 5.882813-29.582031 12.132813-43.25h-14.371094c-1.292969 0-2.570312-.050781-3.84375-.125-11.703125 13.824219-29.167969 22.625-48.65625 22.625-12.386719 0-23.953125-3.5625-33.75-9.703125-9.796875 6.140625-21.363281 9.703125-33.75 9.703125s-23.953125-3.5625-33.75-9.703125v48.648437c0 24.8125 11.078125 48.023438 30 63.582032v84.472656c0 8.285156 6.714844 15 15 15h190c8.285156 0 15-6.714844 15-15v-82c36.292969-16.566406 60-52.855469 60-93.441406v-76.058594c0-30.550781-24.671875-55.5-55-55.5zm0 0"/><path d="m417.1875 162.445312 21.660156-122.828124c3.234375-18.355469-9.019531-35.863282-27.378906-39.097657-18.355469-3.238281-35.859375 9.019531-39.097656 27.375l-23.292969 132.105469h47.921875c6.953125 0 13.714844.851562 20.1875 2.445312zm0 0"/><path d="m256.519531 81.402344c28.804688 6.121094 50.480469 31.746094 50.480469 62.347656v16.25h31.921875l-23.292969-132.105469c-3.238281-18.355469-20.742187-30.613281-39.097656-27.375-18.359375 3.234375-30.613281 20.738281-27.378906 39.097657zm0 0"/></svg>